{"title":"House.Hunting.2013.WEBrip Xvid Ac3-ADTRG","uid":8023103,"size":1605622617,"categoryP":"video","categoryS":"movies","magnet":"?xt=urn:btih:2d248da392e2476bd0de7cd7b89cb422ada9d48f&amp;dn=House.Hunting.2013.WEBrip+Xvid+Ac3-ADTRG&amp;tr=udp%3A%2F%2Ftracker.openbittorrent.com%3A80&amp;tr=udp%3A%2F%2Fopen.demonii.com%3A1337&amp;tr=udp%3A%2F%2Ftracker.coppersurfer.tk%3A6969&amp;tr=udp%3A%2F%2Fexodus.desync.com%3A6969","seeders":1,"leechers":0,"uploader":"juggs99","files":4,"time":1358208787,"description":" &lt;a href=&quot;http://www.shotpix.com/images/16018857355107412378.jpg&quot; rel=&quot;nofollow&quot; target=&quot;_NEW&quot;&gt;http://www.shotpix.com/images/16018857355107412378.jpg&lt;/a&gt;\n\n\n\nGeneral &lt;a href=&quot;\nhttp://www.imdb.com/title/tt1608368/&quot; rel=&quot;nofollow&quot; target=&quot;_NEW&quot;&gt;\nhttp://www.imdb.com/title/tt1608368/&lt;/a&gt;\nComplete name                            :House.Hunting.2013.WEBrip Xvid Ac3-ADTRG.avi\nSource                                   : WEBDL 720p [Thanks]\nFormat                                   : AVI\nFormat/Info                              : Audio Video Interleave\nFile size                                : 1.48 GiB\nDuration                                 : 1h 42mn\nOverall bit rate                         : 2 066 Kbps\nWriting application                      : VirtualDubMod 1.5.10.2 (build 2540/release)\nWriting library                          : VirtualDubMod build 2540/release\n\nVideo\nID                                       : 0\nFormat                                   : MPEG-4 Visual\nFormat profile                           : Advanced Simple@L5\nFormat settings, BVOP                    : 2\nFormat settings, QPel                    : No\nFormat settings, GMC                     : No warppoints\nFormat settings, Matrix                  : Default (H.263)\nMuxing mode                              : Packed bitstream\nCodec ID                                 : XVID\nCodec ID/Hint                            : XviD\nDuration                                 : 1h 42mn\nBit rate                                 : 1 673 Kbps\nWidth                                    : 720 pixels\nHeight                                   : 304 pixels\nDisplay aspect ratio                     : 2.35:1\nFrame rate                               : 23.976 fps\nColor space                              : YUV\nChroma subsampling                       : 4:2:0\nBit depth                                : 8 bits\nScan type                                : Progressive\nCompression mode                         : Lossy\nBits/(Pixel*Frame)                       : 0.319\nStream size                              : 1.20 GiB (81%)\nWriting library                          : XviD 64\n\nAudio\nID                                       : 1\nFormat                                   : AC-3\nFormat/Info                              : Audio Coding 3\nMode extension                           : CM (complete main)\nCodec ID                                 : 2000\nDuration                                 : 1h 42mn\nBit rate mode                            : Constant\nBit rate                                 : 384 Kbps\nChannel(s)                               : 6 channels\nChannel positions                        : Front: L C R, Side: L R, LFE\nSampling rate                            : 48.0 KHz\nBit depth                                : 16 bits\nCompression mode                         : Lossy\nStream size                              : 282 MiB (19%)\nAlignment                                : Split accross interleaves\nInterleave, duration                     : 42 ms (1.00 video frame)\nInterleave, preload duration             : 500 ms\n\n &lt;a href=&quot;\nhttp://www.shotpix.com/images/25946339671062092912.jpeg&quot; rel=&quot;nofollow&quot; target=&quot;_NEW&quot;&gt;\nhttp://www.shotpix.com/images/25946339671062092912.jpeg&lt;/a&gt; &lt;a href=&quot;\nhttp://www.shotpix.com/images/70101747172990673713.jpeg&quot; rel=&quot;nofollow&quot; target=&quot;_NEW&quot;&gt;\nhttp://www.shotpix.com/images/70101747172990673713.jpeg&lt;/a&gt; &lt;a href=&quot;\nhttp://www.shotpix.com/images/53577900932199884268.jpeg&quot; rel=&quot;nofollow&quot; target=&quot;_NEW&quot;&gt;\nhttp://www.shotpix.com/images/53577900932199884268.jpeg&lt;/a&gt; &lt;a href=&quot;\nhttp://www.shotpix.com/images/80009857655359877654.jpeg&quot; rel=&quot;nofollow&quot; target=&quot;_NEW&quot;&gt;\nhttp://www.shotpix.com/images/80009857655359877654.jpeg&lt;/a&gt;","torrent":{"xt":"urn:btih:2d248da392e2476bd0de7cd7b89cb422ada9d48f","amp;dn":"House.Hunting.2013.WEBrip+Xvid+Ac3-ADTRG","amp;tr":["udp%3A%2F%2Ftracker.openbittorrent.com%3A80","udp%3A%2F%2Fopen.demonii.com%3A1337","udp%3A%2F%2Ftracker.coppersurfer.tk%3A6969","udp%3A%2F%2Fexodus.desync.com%3A6969"],"infoHash":"2d248da392e2476bd0de7cd7b89cb422ada9d48f","infoHashBuffer":{"type":"Buffer","data":[45,36,141,163,146,226,71,107,208,222,124,215,184,156,180,34,173,169,212,143]},"announce":[],"urlList":[]}}